<mxfile host="app.diagrams.net" agent="Mozilla/5.0 (Windows NT 10.0; Win64; x64) AppleWebKit/537.36 (KHTML, like Gecko) Chrome/132.0.0.0 Safari/537.36" version="26.1.0">
  <diagram name="Trang-1" id="S8vedJfUpwZKO41Dh91e">
    <mxGraphModel dx="1500" dy="824" grid="1" gridSize="10" guides="1" tooltips="1" connect="1" arrows="1" fold="1" page="1" pageScale="1" pageWidth="850" pageHeight="1100" math="0" shadow="0">
      <root>
        <mxCell id="0" />
        <mxCell id="1" parent="0" />
        <mxCell id="6J7nmZ2sXhbq5Yz-WVOT-1" value="A01 - Quản trị viên" style="shape=umlActor;verticalLabelPosition=bottom;verticalAlign=top;html=1;outlineConnect=0;" vertex="1" parent="1">
          <mxGeometry x="60" y="320" width="30" height="60" as="geometry" />
        </mxCell>
        <mxCell id="6J7nmZ2sXhbq5Yz-WVOT-2" value="UC - 01: Quản lý thuê theo giường" style="ellipse;whiteSpace=wrap;html=1;" vertex="1" parent="1">
          <mxGeometry x="230" y="130" width="195" height="50" as="geometry" />
        </mxCell>
        <mxCell id="6J7nmZ2sXhbq5Yz-WVOT-3" value="UC - 04: Đồng bộ dữ liệu excel" style="ellipse;whiteSpace=wrap;html=1;" vertex="1" parent="1">
          <mxGeometry x="230" y="440" width="198.75" height="50" as="geometry" />
        </mxCell>
        <mxCell id="6J7nmZ2sXhbq5Yz-WVOT-4" value="UC - 03: Xem thông báo hệ thống" style="ellipse;whiteSpace=wrap;html=1;" vertex="1" parent="1">
          <mxGeometry x="227.5" y="330" width="200" height="50" as="geometry" />
        </mxCell>
        <mxCell id="6J7nmZ2sXhbq5Yz-WVOT-5" value="UC - 02: Quản lý thuê theo phòng" style="ellipse;whiteSpace=wrap;html=1;" vertex="1" parent="1">
          <mxGeometry x="230" y="230" width="195" height="50" as="geometry" />
        </mxCell>
        <mxCell id="6J7nmZ2sXhbq5Yz-WVOT-6" value="UC - 05: Thêm mới nhà cho thuê" style="ellipse;whiteSpace=wrap;html=1;" vertex="1" parent="1">
          <mxGeometry x="233.75" y="540" width="195" height="50" as="geometry" />
        </mxCell>
        <mxCell id="6J7nmZ2sXhbq5Yz-WVOT-7" value="UC - 06: Xem thông báo đăng tin dãy trọ" style="ellipse;whiteSpace=wrap;html=1;" vertex="1" parent="1">
          <mxGeometry x="580" y="540" width="270" height="50" as="geometry" />
        </mxCell>
        <mxCell id="6J7nmZ2sXhbq5Yz-WVOT-8" value="UC - 07: Xem thông báo quản lý dãy trọ" style="ellipse;whiteSpace=wrap;html=1;" vertex="1" parent="1">
          <mxGeometry x="570" y="130" width="270" height="50" as="geometry" />
        </mxCell>
        <mxCell id="6J7nmZ2sXhbq5Yz-WVOT-9" value="" style="endArrow=classic;html=1;rounded=0;entryX=0;entryY=0.5;entryDx=0;entryDy=0;" edge="1" parent="1" source="6J7nmZ2sXhbq5Yz-WVOT-1" target="6J7nmZ2sXhbq5Yz-WVOT-2">
          <mxGeometry width="50" height="50" relative="1" as="geometry">
            <mxPoint x="130" y="300" as="sourcePoint" />
            <mxPoint x="180" y="250" as="targetPoint" />
          </mxGeometry>
        </mxCell>
        <mxCell id="6J7nmZ2sXhbq5Yz-WVOT-10" value="" style="endArrow=classic;html=1;rounded=0;entryX=0;entryY=0.5;entryDx=0;entryDy=0;" edge="1" parent="1" target="6J7nmZ2sXhbq5Yz-WVOT-5">
          <mxGeometry width="50" height="50" relative="1" as="geometry">
            <mxPoint x="90" y="330" as="sourcePoint" />
            <mxPoint x="540" y="410" as="targetPoint" />
          </mxGeometry>
        </mxCell>
        <mxCell id="6J7nmZ2sXhbq5Yz-WVOT-11" value="" style="endArrow=classic;html=1;rounded=0;entryX=0;entryY=0.5;entryDx=0;entryDy=0;" edge="1" parent="1" target="6J7nmZ2sXhbq5Yz-WVOT-4">
          <mxGeometry width="50" height="50" relative="1" as="geometry">
            <mxPoint x="90" y="330" as="sourcePoint" />
            <mxPoint x="540" y="410" as="targetPoint" />
          </mxGeometry>
        </mxCell>
        <mxCell id="6J7nmZ2sXhbq5Yz-WVOT-12" value="" style="endArrow=classic;html=1;rounded=0;entryX=0;entryY=0.5;entryDx=0;entryDy=0;" edge="1" parent="1" target="6J7nmZ2sXhbq5Yz-WVOT-3">
          <mxGeometry width="50" height="50" relative="1" as="geometry">
            <mxPoint x="90" y="330" as="sourcePoint" />
            <mxPoint x="540" y="410" as="targetPoint" />
          </mxGeometry>
        </mxCell>
        <mxCell id="6J7nmZ2sXhbq5Yz-WVOT-13" value="" style="endArrow=classic;html=1;rounded=0;entryX=0;entryY=0.5;entryDx=0;entryDy=0;" edge="1" parent="1" target="6J7nmZ2sXhbq5Yz-WVOT-6">
          <mxGeometry width="50" height="50" relative="1" as="geometry">
            <mxPoint x="90" y="330" as="sourcePoint" />
            <mxPoint x="510" y="370" as="targetPoint" />
          </mxGeometry>
        </mxCell>
        <mxCell id="6J7nmZ2sXhbq5Yz-WVOT-14" value="A02 - Chủ sở hữu" style="shape=umlActor;verticalLabelPosition=bottom;verticalAlign=top;html=1;outlineConnect=0;" vertex="1" parent="1">
          <mxGeometry x="60" y="30" width="30" height="60" as="geometry" />
        </mxCell>
        <mxCell id="6J7nmZ2sXhbq5Yz-WVOT-15" value="" style="endArrow=classic;html=1;rounded=0;entryX=0;entryY=0.5;entryDx=0;entryDy=0;" edge="1" parent="1" source="6J7nmZ2sXhbq5Yz-WVOT-14" target="6J7nmZ2sXhbq5Yz-WVOT-5">
          <mxGeometry width="50" height="50" relative="1" as="geometry">
            <mxPoint x="130" y="720" as="sourcePoint" />
            <mxPoint x="180" y="670" as="targetPoint" />
          </mxGeometry>
        </mxCell>
        <mxCell id="6J7nmZ2sXhbq5Yz-WVOT-16" value="" style="endArrow=none;html=1;rounded=0;" edge="1" parent="1">
          <mxGeometry width="50" height="50" relative="1" as="geometry">
            <mxPoint x="90" y="80" as="sourcePoint" />
            <mxPoint x="720" y="80" as="targetPoint" />
          </mxGeometry>
        </mxCell>
        <mxCell id="6J7nmZ2sXhbq5Yz-WVOT-17" value="" style="endArrow=classic;html=1;rounded=0;entryX=0.551;entryY=-0.02;entryDx=0;entryDy=0;entryPerimeter=0;" edge="1" parent="1" target="6J7nmZ2sXhbq5Yz-WVOT-8">
          <mxGeometry width="50" height="50" relative="1" as="geometry">
            <mxPoint x="720" y="80" as="sourcePoint" />
            <mxPoint x="780" y="40" as="targetPoint" />
          </mxGeometry>
        </mxCell>
        <mxCell id="6J7nmZ2sXhbq5Yz-WVOT-18" style="edgeStyle=orthogonalEdgeStyle;rounded=0;orthogonalLoop=1;jettySize=auto;html=1;exitX=0.5;exitY=0;exitDx=0;exitDy=0;exitPerimeter=0;entryX=1;entryY=0.5;entryDx=0;entryDy=0;" edge="1" parent="1" source="6J7nmZ2sXhbq5Yz-WVOT-20" target="6J7nmZ2sXhbq5Yz-WVOT-8">
          <mxGeometry relative="1" as="geometry" />
        </mxCell>
        <mxCell id="6J7nmZ2sXhbq5Yz-WVOT-19" style="edgeStyle=orthogonalEdgeStyle;rounded=0;orthogonalLoop=1;jettySize=auto;html=1;exitX=0;exitY=1;exitDx=0;exitDy=0;exitPerimeter=0;entryX=1;entryY=0.5;entryDx=0;entryDy=0;" edge="1" parent="1" source="6J7nmZ2sXhbq5Yz-WVOT-20" target="6J7nmZ2sXhbq5Yz-WVOT-7">
          <mxGeometry relative="1" as="geometry">
            <Array as="points">
              <mxPoint x="1010" y="340" />
              <mxPoint x="1010" y="565" />
            </Array>
          </mxGeometry>
        </mxCell>
        <mxCell id="6J7nmZ2sXhbq5Yz-WVOT-20" value="A03 - Khách thuê" style="shape=umlActor;verticalLabelPosition=bottom;verticalAlign=top;html=1;outlineConnect=0;" vertex="1" parent="1">
          <mxGeometry x="1070" y="270" width="40" height="70" as="geometry" />
        </mxCell>
        <mxCell id="6J7nmZ2sXhbq5Yz-WVOT-21" value="&amp;lt;&amp;lt;include&amp;gt;&amp;gt;" style="html=1;verticalAlign=bottom;labelBackgroundColor=none;endArrow=open;endFill=0;dashed=1;rounded=0;exitX=1;exitY=0.5;exitDx=0;exitDy=0;entryX=0;entryY=0.5;entryDx=0;entryDy=0;" edge="1" parent="1" source="6J7nmZ2sXhbq5Yz-WVOT-2" target="6J7nmZ2sXhbq5Yz-WVOT-8">
          <mxGeometry width="160" relative="1" as="geometry">
            <mxPoint x="600" y="290" as="sourcePoint" />
            <mxPoint x="760" y="290" as="targetPoint" />
          </mxGeometry>
        </mxCell>
        <mxCell id="6J7nmZ2sXhbq5Yz-WVOT-22" value="&amp;lt;&amp;lt;include&amp;gt;&amp;gt;" style="html=1;verticalAlign=bottom;labelBackgroundColor=none;endArrow=open;endFill=0;dashed=1;rounded=0;exitX=1;exitY=0.5;exitDx=0;exitDy=0;entryX=0;entryY=0.5;entryDx=0;entryDy=0;" edge="1" parent="1" source="6J7nmZ2sXhbq5Yz-WVOT-6" target="6J7nmZ2sXhbq5Yz-WVOT-7">
          <mxGeometry width="160" relative="1" as="geometry">
            <mxPoint x="600" y="290" as="sourcePoint" />
            <mxPoint x="760" y="290" as="targetPoint" />
          </mxGeometry>
        </mxCell>
        <mxCell id="6J7nmZ2sXhbq5Yz-WVOT-23" value="" style="swimlane;startSize=0;" vertex="1" parent="1">
          <mxGeometry x="150" y="30" width="830" height="600" as="geometry" />
        </mxCell>
        <mxCell id="6J7nmZ2sXhbq5Yz-WVOT-24" value="&lt;div&gt;&lt;span style=&quot;background-color: light-dark(rgb(255, 255, 255), rgb(18, 18, 18)); color: light-dark(rgb(8, 27, 58), rgb(201, 217, 244)); font-family: SegoeuiPc, &amp;quot;Segoe UI&amp;quot;, &amp;quot;San Francisco&amp;quot;, &amp;quot;Helvetica Neue&amp;quot;, Helvetica, &amp;quot;Lucida Grande&amp;quot;, Roboto, Ubuntu, Tahoma, &amp;quot;Microsoft Sans Serif&amp;quot;, Arial, sans-serif; font-size: 15px; letter-spacing: 0.2px; text-align: start; white-space-collapse: preserve;&quot;&gt;&lt;b&gt;Hệ thống quản lý bất động sản cho thuê&lt;/b&gt;&lt;/span&gt;&lt;br&gt;&lt;/div&gt;" style="text;html=1;align=center;verticalAlign=middle;whiteSpace=wrap;rounded=0;" vertex="1" parent="6J7nmZ2sXhbq5Yz-WVOT-23">
          <mxGeometry x="260" y="10" width="320" height="30" as="geometry" />
        </mxCell>
      </root>
    </mxGraphModel>
  </diagram>
</mxfile>
